<?xml version="1.0" standalone="no"?>
<!DOCTYPE svg PUBLIC "-//W3C//DTD SVG 20010904//EN"
 "http://www.w3.org/TR/2001/REC-SVG-20010904/DTD/svg10.dtd">
<svg xmlns="http://www.w3.org/2000/svg" x="0px" y="0px" width="25" height="25" viewBox="0 0 512 512">
    <g transform="translate(0.000000,512.000000) scale(0.100000,-0.100000)" fill="#ffffff" stroke="none">
     <path d="M368 4938 l-3 -183 -182 -3 -183 -2 0 -240 0 -240 183 -2 182 -3 3 -182 2 -183 180 0 180 0 0 -180 0 -180 183 -2 182 -3 3 -182 2 -183 180 0 180 0 2 -182 3 -183 183 -3 182 -2 0 -240 0 -240 -182 -2 -183 -3 -3 -182 -2 -183 -180 0 -180 0 -2 -182 -3 -183 -182 -3 -183 -2 0 -180 0 -180 -180 0 -180 0 -2 -183 -3 -182 -183 -3 -182 -2 0 -240 0 -240 183 -2 182 -3 3 -183 2 -182 240 0 240 0 2 183 3 182 183 3 182 2 0 180 0 180 180 0 180 0 2 183 3 182 183 3 182 2 0 180 0 180 183 2 182 3 3 183 2 182 240 0 240 0 2 -182 3 -183 183 -3 182 -2 0 -180 0 -180 183 -2 182 -3 3 -182 2 -183 180 0 180 0 0 -180 0 -180 183 -2 182 -3 3 -182 2 -183 240 0 240 0 2 183 3 182 183 3 182 2 0 240 0 240 -182 2 -183 3 -3 183 -2 182 -180 0 -180 0 0 180 0 180 -182 2 -183 3 -3 183 -2 182 -180 0 -180 0 -2 183 -3 182 -182 3 -183 2 0 240 0 240 183 2 182 3 3 183 2 182 180 0 180 0 2 183 3 182 183 3 182 2 0 180 0 180 180 0 180 0 2 183 3 182 183 3 182 2 0 240 0 240 -182 2 -183 3 -3 183 -2 182 -240 0 -240 0 -2 -182 -3 -183 -182 -3 -183 -2 0 -180 0 -180 -180 0 -180 0 -2 -182 -3 -183 -182 -3 -183 -2 0 -180 0 -180 -182 -2 -183 -3 -3 -182 -2 -183 -240 0 -240 0 -2 183 -3 182 -182 3 -183 2 0 180 0 180 -182 2 -183 3 -3 183 -2 182 -180 0 -180 0 0 180 0 180 -182 2 -183 3 -3 183 -2 182 -240 0 -240 0 -2 -182z"/>
    </g>
</svg>
